{"title":"Oculus 2013 HDRIP x264 AC3 TiTAN","uid":10214660,"size":874785737,"categoryP":"video","categoryS":"movies","magnet":"?xt=urn:btih:327f5dcd3c9a711f7cae715a5117d065469f82f9&amp;dn=Oculus+2013+HDRIP+x264+AC3+TiTAN&amp;tr=udp%3A%2F%2Ftracker.openbittorrent.com%3A80&amp;tr=udp%3A%2F%2Fopen.demonii.com%3A1337&amp;tr=udp%3A%2F%2Ftracker.coppersurfer.tk%3A6969&amp;tr=udp%3A%2F%2Fexodus.desync.com%3A6969","seeders":1,"leechers":0,"uploader":"Xetron","files":3,"time":1400949765,"description":"[img]http://i.imgur.com/U18PMm6.jpg[/img]\n\nOculus 2013 HDRIP x264 AC3 TiTAN\n\nFormat                                   : Matroska\nFormat version                           : Version 2\nFile size                                : 834 MiB\nDuration                                 : 1h 38mn\nOverall bit rate mode                    : Variable\nOverall bit rate                         : 1 183 Kbps\nEncoded date                             : UTC 2014-05-24 10:01:21\nWriting application                      : mkvmerge v6.9.1 ('Blue Panther') 32bit built on Apr 18 2014 18:15:44\nWriting library                          : libebml v1.3.0 + libmatroska v1.4.1\n\nVideo\nID                                       : 1\nFormat                                   : AVC\nFormat/Info                              : Advanced Video Codec\nFormat profile                           : &lt;a class=&quot;__cf_email__&quot; href=&quot;/cdn-cgi/l/email-protection&quot; data-cfemail=&quot;89c1e0eee1c9c5bda7b8&quot;&gt;[email&amp;#160;protected]&lt;/a&gt;&lt;script data-cfhash='f9e31' type=&quot;text/javascript&quot;&gt;\n/* &lt;![CDATA[ */!function(){try{var t=&quot;currentScript&quot;in document?document.currentScript:function(){for(var t=document.getElementsByTagName(&quot;script&quot;),e=t.length;e--;)if(t[e].getAttribute(&quot;data-cfhash&quot;))return t[e]}();if(t&amp;&amp;t.previousSibling){var e,r,n,i,c=t.previousSibling,a=c.getAttribute(&quot;data-cfemail&quot;);if(a){for(e=&quot;&quot;,r=parseInt(a.substr(0,2),16),n=2;a.length-n;n+=2)i=parseInt(a.substr(n,2),16)^r,e+=String.fromCharCode(i);e=document.createTextNode(e),c.parentNode.replaceChild(e,c)}t.parentNode.removeChild(t);}}catch(u){}}()/* ]]&gt; */&lt;/script&gt;\nFormat settings, CABAC                   : Yes\nFormat settings, ReFrames                : 3 frames\nCodec ID                                 : V_MPEG4/ISO/AVC\nDuration                                 : 1h 38mn\nBit rate mode                            : Variable\nBit rate                                 : 935 Kbps\nMaximum bit rate                         : 40.0 Mbps\nWidth                                    : 720 pixels\nHeight                                   : 320 pixels\nDisplay aspect ratio                     : 2.25:1\nFrame rate mode                          : Constant\nFrame rate                               : 25.000 fps\nColor space                              : YUV\nChroma subsampling                       : 4:2:0\nBit depth                                : 8 bits\nScan type                                : Progressive\nBits/(Pixel*Frame)                       : 0.162\nStream size                              : 660 MiB (79%)\nWriting library                          : x264 core 142 r2431 ac76440\nDefault                                  : Yes\nForced                                   : No\nColor primaries                          : BT.709\nTransfer characteristics                 : BT.709\nMatrix coefficients                      : BT.709\n\nAudio\nID                                       : 2\nFormat                                   : AC-3\nFormat/Info                              : Audio Coding 3\nMode extension                           : CM (complete main)\nFormat settings, Endianness              : Big\nCodec ID                                 : A_AC3\nDuration                                 : 1h 38mn\nBit rate mode                            : Constant\nBit rate                                 : 224 Kbps\nChannel(s)                               : 2 channels\nChannel positions                        : Front: L R\nSampling rate                            : 48.0 KHz\nBit depth                                : 16 bits\nCompression mode                         : Lossy\nStream size                              : 158 MiB (19%)\nDefault                                  : Yes\nForced                                   : No\n\n\nIMDB: &lt;a href=&quot; http://www.imdb.com/title/tt1928144&quot; rel=&quot;nofollow&quot; target=&quot;_NEW&quot;&gt; http://www.imdb.com/title/tt1928144&lt;/a&gt;\n\nPlot\n\nOculus (I) (2013)\n104 min  -  Horror  -  11 April 2014 (USA)\n6.9\n\nA woman tries to exonerate her brother, who was convicted of murder, by proving that the crime was committed by a supernatural phenomenon.\n\nDirector: Mike Flanagan\nWriters: Mike Flanagan (screenplay), Jeff Howard (screenplay)\n\nCast\n\nKaren Gillan ... Kaylie Russell\nBrenton Thwaites ... Tim Russell\nKatee Sackhoff ... Marie Russell\nRory Cochrane ... Alan Russell\nAnnalise Basso ... Young Kaylie\nGarrett Ryan ... Young Tim\nJames Lafferty ... Michael Dumont\nMiguel Sandoval ... Dr. Shawn Graham\nKate Siegel ... Marisol Chavez\nScott Graham ... Warren\nMichael J. Fourticq ... St. Aidan Security Guard\nKatie Parker ... Phone Store Clerk\nJustin Gordon ... Mark (Supervisor)\nBob Gebert ... Neighbor\nBrett Luciana Murray ... Officer 1 \n\n[img]http://i.imgur.com/QSCh1BE.png[/img]\n[img]http://i.imgur.com/vyU7F7k.png[/img]\n[img]http://i.imgur.com/Om3HFTd.png[/img]\n[img]http://i.imgur.com/VIROu5O.png[/img]\n[img]http://i.imgur.com/QQSGWlo.png[/img]","torrent":{"xt":"urn:btih:327f5dcd3c9a711f7cae715a5117d065469f82f9","amp;dn":"Oculus+2013+HDRIP+x264+AC3+TiTAN","amp;tr":["udp%3A%2F%2Ftracker.openbittorrent.com%3A80","udp%3A%2F%2Fopen.demonii.com%3A1337","udp%3A%2F%2Ftracker.coppersurfer.tk%3A6969","udp%3A%2F%2Fexodus.desync.com%3A6969"],"infoHash":"327f5dcd3c9a711f7cae715a5117d065469f82f9","infoHashBuffer":{"type":"Buffer","data":[50,127,93,205,60,154,113,31,124,174,113,90,81,23,208,101,70,159,130,249]},"announce":[],"urlList":[]}}